<svg width="26" height="26" viewBox="0 0 26 26" fill="none" xmlns="http://www.w3.org/2000/svg">
<path d="M23.8335 22.7502H22.7502V2.16683C22.7502 1.87951 22.636 1.60396 22.4329 1.4008C22.2297 1.19763 21.9541 1.0835 21.6668 1.0835H4.3335C4.04618 1.0835 3.77063 1.19763 3.56746 1.4008C3.3643 1.60396 3.25016 1.87951 3.25016 2.16683V22.7502H2.16683C1.87951 22.7502 1.60396 22.8643 1.4008 23.0675C1.19763 23.2706 1.0835 23.5462 1.0835 23.8335C1.0835 24.1208 1.19763 24.3964 1.4008 24.5995C1.60396 24.8027 1.87951 24.9168 2.16683 24.9168H23.8335C24.1208 24.9168 24.3964 24.8027 24.5995 24.5995C24.8027 24.3964 24.9168 24.1208 24.9168 23.8335C24.9168 23.5462 24.8027 23.2706 24.5995 23.0675C24.3964 22.8643 24.1208 22.7502 23.8335 22.7502ZM9.75016 22.7502V18.4168H16.2502V22.7502H9.75016ZM18.4168 22.7502V17.3335C18.4168 17.0462 18.3027 16.7706 18.0995 16.5675C17.8964 16.3643 17.6208 16.2502 17.3335 16.2502H8.66683C8.37951 16.2502 8.10396 16.3643 7.9008 16.5675C7.69763 16.7706 7.5835 17.0462 7.5835 17.3335V22.7502H5.41683V3.25016H20.5835V22.7502H18.4168ZM9.75016 6.50016V7.5835C9.75016 7.87081 9.63603 8.14636 9.43286 8.34953C9.2297 8.55269 8.95415 8.66683 8.66683 8.66683C8.37951 8.66683 8.10396 8.55269 7.9008 8.34953C7.69763 8.14636 7.5835 7.87081 7.5835 7.5835V6.50016C7.5835 6.21284 7.69763 5.9373 7.9008 5.73413C8.10396 5.53097 8.37951 5.41683 8.66683 5.41683C8.95415 5.41683 9.2297 5.53097 9.43286 5.73413C9.63603 5.9373 9.75016 6.21284 9.75016 6.50016ZM14.0835 6.50016V7.5835C14.0835 7.87081 13.9694 8.14636 13.7662 8.34953C13.563 8.55269 13.2875 8.66683 13.0002 8.66683C12.7128 8.66683 12.4373 8.55269 12.2341 8.34953C12.031 8.14636 11.9168 7.87081 11.9168 7.5835V6.50016C11.9168 6.21284 12.031 5.9373 12.2341 5.73413C12.4373 5.53097 12.7128 5.41683 13.0002 5.41683C13.2875 5.41683 13.563 5.53097 13.7662 5.73413C13.9694 5.9373 14.0835 6.21284 14.0835 6.50016ZM18.4168 6.50016V7.5835C18.4168 7.87081 18.3027 8.14636 18.0995 8.34953C17.8964 8.55269 17.6208 8.66683 17.3335 8.66683C17.0462 8.66683 16.7706 8.55269 16.5675 8.34953C16.3643 8.14636 16.2502 7.87081 16.2502 7.5835V6.50016C16.2502 6.21284 16.3643 5.9373 16.5675 5.73413C16.7706 5.53097 17.0462 5.41683 17.3335 5.41683C17.6208 5.41683 17.8964 5.53097 18.0995 5.73413C18.3027 5.9373 18.4168 6.21284 18.4168 6.50016ZM9.75016 11.9168V13.0002C9.75016 13.2875 9.63603 13.563 9.43286 13.7662C9.2297 13.9694 8.95415 14.0835 8.66683 14.0835C8.37951 14.0835 8.10396 13.9694 7.9008 13.7662C7.69763 13.563 7.5835 13.2875 7.5835 13.0002V11.9168C7.5835 11.6295 7.69763 11.354 7.9008 11.1508C8.10396 10.9476 8.37951 10.8335 8.66683 10.8335C8.95415 10.8335 9.2297 10.9476 9.43286 11.1508C9.63603 11.354 9.75016 11.6295 9.75016 11.9168ZM14.0835 11.9168V13.0002C14.0835 13.2875 13.9694 13.563 13.7662 13.7662C13.563 13.9694 13.2875 14.0835 13.0002 14.0835C12.7128 14.0835 12.4373 13.9694 12.2341 13.7662C12.031 13.563 11.9168 13.2875 11.9168 13.0002V11.9168C11.9168 11.6295 12.031 11.354 12.2341 11.1508C12.4373 10.9476 12.7128 10.8335 13.0002 10.8335C13.2875 10.8335 13.563 10.9476 13.7662 11.1508C13.9694 11.354 14.0835 11.6295 14.0835 11.9168ZM18.4168 11.9168V13.0002C18.4168 13.2875 18.3027 13.563 18.0995 13.7662C17.8964 13.9694 17.6208 14.0835 17.3335 14.0835C17.0462 14.0835 16.7706 13.9694 16.5675 13.7662C16.3643 13.563 16.2502 13.2875 16.2502 13.0002V11.9168C16.2502 11.6295 16.3643 11.354 16.5675 11.1508C16.7706 10.9476 17.0462 10.8335 17.3335 10.8335C17.6208 10.8335 17.8964 10.9476 18.0995 11.1508C18.3027 11.354 18.4168 11.6295 18.4168 11.9168Z" fill="#858585"/>
</svg>
