<svg width="26" height="26" viewBox="0 0 26 26" fill="none" xmlns="http://www.w3.org/2000/svg">
<path d="M25.5938 13C25.5938 13.3233 25.4653 13.6332 25.2368 13.8618C25.0082 14.0904 24.6982 14.2188 24.375 14.2188H23.0141C22.7382 15.3747 22.0812 16.4041 21.149 17.1411C20.2167 17.8781 19.0634 18.2797 17.875 18.2813H14.2188V19.9063H16.25C17.2197 19.9063 18.1497 20.2915 18.8354 20.9772C19.521 21.6628 19.9062 22.5928 19.9062 23.5625C19.9062 23.8858 19.7778 24.1957 19.5493 24.4243C19.3207 24.6529 19.0107 24.7813 18.6875 24.7813C18.3643 24.7813 18.0543 24.6529 17.8257 24.4243C17.5972 24.1957 17.4688 23.8858 17.4688 23.5625C17.4688 23.2393 17.3403 22.9293 17.1118 22.7007C16.8832 22.4722 16.5732 22.3438 16.25 22.3438H14.2188V23.5625C14.2188 23.8858 14.0903 24.1957 13.8618 24.4243C13.6332 24.6529 13.3232 24.7813 13 24.7813C12.6768 24.7813 12.3668 24.6529 12.1382 24.4243C11.9097 24.1957 11.7812 23.8858 11.7812 23.5625V22.3438H9.75C9.42677 22.3438 9.11677 22.4722 8.88821 22.7007C8.65965 22.9293 8.53125 23.2393 8.53125 23.5625C8.53125 23.8858 8.40285 24.1957 8.17429 24.4243C7.94573 24.6529 7.63573 24.7813 7.3125 24.7813C6.98927 24.7813 6.67927 24.6529 6.45071 24.4243C6.22215 24.1957 6.09375 23.8858 6.09375 23.5625C6.09375 22.5928 6.47896 21.6628 7.16464 20.9772C7.85032 20.2915 8.7803 19.9063 9.75 19.9063H11.7812V18.2813H8.125C6.9366 18.2797 5.78333 17.8781 4.85104 17.1411C3.91876 16.4041 3.26176 15.3747 2.98594 14.2188H1.625C1.30177 14.2188 0.991774 14.0904 0.763214 13.8618C0.534654 13.6332 0.40625 13.3233 0.40625 13C0.40625 12.6768 0.534654 12.3668 0.763214 12.1382C0.991774 11.9097 1.30177 11.7813 1.625 11.7813H4.0625C4.38573 11.7813 4.69573 11.9097 4.92429 12.1382C5.15285 12.3668 5.28125 12.6768 5.28125 13C5.28125 13.7542 5.58086 14.4776 6.11417 15.0109C6.64747 15.5442 7.37079 15.8438 8.125 15.8438H17.875C18.6292 15.8438 19.3525 15.5442 19.8858 15.0109C20.4191 14.4776 20.7188 13.7542 20.7188 13C20.7188 12.6768 20.8472 12.3668 21.0757 12.1382C21.3043 11.9097 21.6143 11.7813 21.9375 11.7813H24.375C24.6982 11.7813 25.0082 11.9097 25.2368 12.1382C25.4653 12.3668 25.5938 12.6768 25.5938 13ZM7.39578 13.5078C7.20595 13.2863 7.06605 13.0265 6.98561 12.7461C6.90517 12.4657 6.88607 12.1713 6.92961 11.8828L8.30781 2.94533C8.37895 2.46383 8.62137 2.02414 8.99058 1.70698C9.35979 1.38982 9.83101 1.21648 10.3177 1.21877H15.6823C16.169 1.21648 16.6402 1.38982 17.0094 1.70698C17.3786 2.02414 17.6211 2.46383 17.6922 2.94533L19.0704 11.8828C19.1143 12.172 19.0952 12.4672 19.0144 12.7483C18.9337 13.0294 18.7932 13.2898 18.6025 13.5116C18.4119 13.7334 18.1756 13.9114 17.9098 14.0335C17.644 14.1555 17.355 14.2187 17.0625 14.2188H8.9375C8.64445 14.2185 8.35492 14.1548 8.0888 14.0321C7.82268 13.9094 7.58627 13.7305 7.39578 13.5078ZM9.4118 11.7813H16.5882L15.3359 3.65627H10.6641L9.4118 11.7813Z" fill="#858585"/>
</svg>
