<svg width="20" height="20" viewBox="0 0 20 20" fill="none" xmlns="http://www.w3.org/2000/svg">
<path d="M11.6673 11.2498V6.6665C11.6673 4.82555 10.1749 3.33317 8.33398 3.33317C6.49303 3.33317 5.00065 4.82555 5.00065 6.6665V11.2498C5.00065 14.2414 7.42578 16.6665 10.4173 16.6665C13.4089 16.6665 15.834 14.2414 15.834 11.2498V3.33317H17.5007V11.2498C17.5007 15.1618 14.3293 18.3332 10.4173 18.3332C6.5053 18.3332 3.33398 15.1618 3.33398 11.2498V6.6665C3.33398 3.90508 5.57256 1.6665 8.33398 1.6665C11.0954 1.6665 13.334 3.90508 13.334 6.6665V11.2498C13.334 12.8607 12.0282 14.1665 10.4173 14.1665C8.80648 14.1665 7.50065 12.8607 7.50065 11.2498V6.6665H9.16732V11.2498C9.16732 11.9402 9.72698 12.4998 10.4173 12.4998C11.1077 12.4998 11.6673 11.9402 11.6673 11.2498Z" fill="#C78E50"/>
</svg>
